<svg width="149" height="35" viewBox="0 0 149 35" fill="none" xmlns="http://www.w3.org/2000/svg">
<path d="M137.893 6.85263C138.518 6.78352 139.205 6.78985 139.834 6.83656C142.286 7.01903 144.065 8.10419 145.637 9.9406C145.59 9.01776 145.537 8.10797 145.59 7.18381C146.644 7.11395 147.71 7.14704 148.767 7.14987L148.765 20.185C148.77 22.7982 149 25.6118 148.548 28.1843C148.288 29.6696 147.767 31.1293 146.844 32.3357C145.589 33.9779 144.005 34.6539 142.003 34.911C142.726 34.0488 143.419 33.1743 143.996 32.2071C145.5 29.0456 145.524 25.9682 145.568 22.5514C144.25 24.1152 142.854 25.1665 140.804 25.5475C138.386 25.9937 135.89 25.4633 133.863 24.0717C131.891 22.7055 130.57 20.4299 130.161 18.0861C129.71 15.5051 130.227 12.7144 131.745 10.5609C133.263 8.40692 135.343 7.30095 137.893 6.85263ZM140.75 22.4077C144.127 21.71 146.295 18.3991 145.583 15.0239C144.872 11.6493 141.553 9.49539 138.18 10.2203C134.828 10.9411 132.688 14.2373 133.395 17.5936C134.103 20.9489 137.391 23.1017 140.75 22.4077Z" fill="#649179"/>
<path d="M89.3882 6.80398C94.6136 6.02022 99.4845 9.62581 100.261 14.8527C101.037 20.08 97.4234 24.9452 92.1952 25.7138C86.9783 26.4806 82.1254 22.8766 81.3511 17.6606C80.5768 12.4441 84.1732 7.58613 89.3882 6.80398ZM91.8766 22.4464C95.2886 21.83 97.5435 18.5503 96.8968 15.1439C96.2511 11.7379 92.9515 9.51207 89.5508 10.1883C86.1926 10.8563 84.0011 14.1058 84.6393 17.4697C85.2775 20.8335 88.5071 23.0543 91.8766 22.4464Z" fill="#649179"/>
<path d="M58.6368 6.84449C59.3797 6.81017 60.1525 6.7733 60.8883 6.89875C62.9818 7.25584 64.0749 8.50069 65.2284 10.1441C65.553 9.61479 65.9287 9.1071 66.3632 8.66284C67.5561 7.44257 69.2036 6.82605 70.8983 6.81717C72.7193 6.80762 74.5418 7.2705 75.8569 8.59722C76.6643 9.42712 77.2296 10.4618 77.4934 11.5896C77.9567 13.5145 77.7581 15.7131 77.7563 17.6909L77.7619 24.9897L74.4548 24.9812L74.4491 17.9443C74.4501 16.3409 74.5966 14.5653 74.2695 12.9908C74.1381 12.3602 73.8885 11.7834 73.4612 11.2963C72.8077 10.5511 71.7174 10.0548 70.7288 10.0258C69.5318 9.9905 68.2783 10.3073 67.4116 11.1721C66.8218 11.7607 66.4466 12.5297 66.2439 13.3317C65.7504 15.2848 66.0024 19.11 66.0093 21.2685L66.0325 24.985L62.6917 25.0048L62.7141 17.8999C62.7206 16.3049 62.8991 14.485 62.5399 12.9335C62.3765 12.2279 62.0439 11.5559 61.5298 11.0399C60.7875 10.2951 59.7839 10.0245 58.7549 10.0329C57.6511 10.0417 56.5581 10.3761 55.7787 11.187C55.1467 11.8443 54.7643 12.7317 54.575 13.6159C54.2555 15.109 54.3987 16.7805 54.4002 18.3036L54.4085 24.9963L51.0407 24.9821C51.2043 22.9797 51.0535 20.2852 51.0542 18.1911C51.0553 14.5341 51.1606 10.8341 51.0302 7.18182C52.1566 7.18257 53.2996 7.22399 54.4222 7.12481L54.4254 9.59219C55.6292 8.08934 56.7483 7.2947 58.6368 6.84449Z" fill="#649179"/>
<path d="M25.9292 6.85685C26.2991 6.8126 26.6908 6.8215 27.0633 6.81781C29.0972 6.79795 31.2101 7.31558 32.6909 8.78336C33.4231 9.50916 33.9164 10.4069 34.172 11.4022C34.6528 13.2749 34.4327 15.4947 34.4349 17.4186L34.4423 24.9944L31.133 24.9849L31.147 22.8161C30.1467 24.0357 28.9835 24.9424 27.4519 25.3792C25.57 25.9171 23.1091 25.764 21.3985 24.7609C20.0113 23.9468 19.3282 22.8161 18.9052 21.3044C18.7915 20.0413 18.9102 18.8396 19.6221 17.7514C21.1455 15.4209 24.2306 15.0778 26.7345 14.6466C28.2099 14.3923 29.6864 14.155 31.147 13.8241C31.1187 13.0229 31.0021 12.2423 30.5816 11.544C30.0905 10.7285 29.2818 10.1973 28.3655 9.97489C27.1443 9.6784 25.5963 9.79327 24.5225 10.4626C23.5138 11.0914 23.0447 12.0508 22.7712 13.1647C21.6339 13.108 20.5063 13.1332 19.3686 13.1586C19.699 11.8918 20.0216 10.6743 20.7953 9.59274C22.0616 7.82233 23.8603 7.20439 25.9292 6.85685ZM23.2142 22.107C24.4711 22.8605 26.0465 22.9712 27.4501 22.61C28.7044 22.2876 29.9427 21.5483 30.5909 20.3958C31.236 19.2499 31.1567 17.9689 31.1451 16.7039L31.0404 16.6216C29.9489 16.7133 28.8768 16.9374 27.7977 17.1189C26.1965 17.3874 23.9667 17.4565 22.8104 18.7536C22.3633 19.2556 22.2221 19.8285 22.2784 20.4894C22.3393 21.2013 22.6942 21.6476 23.2142 22.107Z" fill="#649179"/>
<path d="M0 0.0385132C1.10228 0.0916464 2.20021 0.0343488 3.30116 0.0729224C3.21626 3.30072 3.45073 6.55811 3.24727 9.77881C3.50405 9.45481 3.75034 9.12032 4.02262 8.80899C5.10533 7.5717 6.7274 6.89638 8.35099 6.825C10.2228 6.74275 12.073 7.16885 13.4811 8.46211C14.4221 9.32642 15.0608 10.4255 15.3859 11.6583C15.8035 13.242 15.6783 15.0191 15.6776 16.6453C15.6765 19.4163 15.5646 22.2309 15.7 24.9972L12.4346 24.984C12.3617 22.159 12.4127 19.3209 12.4053 16.494C12.4331 14.7194 12.5652 12.6141 11.2389 11.2386C10.4185 10.3876 9.30096 10.0277 8.14044 10.0114C6.8522 9.99333 5.61057 10.378 4.69246 11.3122C4.14524 11.8745 3.75544 12.5706 3.56219 13.3309C3.13959 14.9464 3.30646 16.8571 3.30466 18.5239C3.29974 20.6766 3.31033 22.8303 3.33643 24.984L0.0388582 24.9906C0.000568274 16.684 0.206955 8.34053 0 0.0385132Z" fill="#649179"/>
<path d="M111.606 6.84821C111.92 6.83394 112.235 6.82458 112.548 6.82004C114.362 6.80227 116.181 7.29711 117.493 8.60379C118.348 9.45392 118.878 10.5508 119.155 11.7143C119.621 13.6738 119.447 15.801 119.445 17.8043L119.447 24.9972L116.079 24.9934C116.112 23.372 116.081 21.743 116.09 20.1197C116.102 18.0587 116.362 14.8801 115.818 12.9669C115.517 11.9123 114.896 10.9431 113.901 10.4269C112.674 9.78974 111.029 9.94829 109.751 10.356C109.235 10.6228 108.785 10.8985 108.365 11.3124C107.695 11.9743 107.394 12.7548 107.198 13.6558C106.856 15.2318 106.982 16.9478 106.983 18.5522L106.995 25.0038C105.885 24.983 104.774 24.9972 103.664 24.9972C103.756 19.0665 103.676 13.1191 103.68 7.18583L106.99 7.18167C106.996 8.02963 106.985 8.87834 106.982 9.72639C108.184 7.97205 109.584 7.29587 111.606 6.84821Z" fill="#649179"/>
<path d="M46.2509 6.84395C46.9122 6.81445 47.5772 6.82457 48.2392 6.8222C48.2621 8.02829 48.2446 9.2375 48.243 10.4439C47.9928 10.4341 47.7424 10.426 47.492 10.4196C45.9849 10.3826 44.3535 10.5779 43.2301 11.6979C42.6354 12.2908 42.2737 13.0657 42.0815 13.8751C41.7169 15.4096 41.8355 17.1085 41.8348 18.676L41.8554 24.9943C41.2002 24.9962 39.0873 25.2335 38.5419 24.8648L38.5138 24.5301C38.3888 18.7649 38.4851 12.9679 38.5211 7.20066L41.8981 7.18137C41.8039 8.12586 41.8516 9.08708 41.8722 10.0348C43.1439 8.14845 43.9548 7.40402 46.2509 6.84395Z" fill="#649179"/>
<path d="M123.316 7.1908C124.427 7.19856 125.538 7.19855 126.649 7.19061V24.9972C125.533 24.9849 124.416 24.9906 123.3 25.0161C123.373 19.077 123.317 13.1305 123.316 7.1908Z" fill="#649179"/>
<path d="M124.295 0.0336704C124.704 0.0101291 125.155 -0.0390324 125.557 0.0570234C126.097 0.186358 126.605 0.579843 126.865 1.06882C127.121 1.55742 127.159 2.13082 126.97 2.64892C126.715 3.33256 126.221 3.68389 125.584 3.97782C125.155 4.00439 124.727 4.02613 124.311 3.89604C123.769 3.72672 123.284 3.33635 123.034 2.82364C122.811 2.37513 122.778 1.85636 122.942 1.38346C123.181 0.704357 123.677 0.342164 124.295 0.0336704Z" fill="#649179"/>
</svg>
